<?xml version="1.0" encoding="UTF-8" standalone="no"?>
<!-- Generator: Adobe Illustrator 16.0.0, SVG Export Plug-In . SVG Version: 6.00 Build 0)  -->

<svg
   version="1.1"
   id="Layer_1"
   x="0px"
   y="0px"
   width="199.81px"
   height="105.24px"
   viewBox="0 0 199.81 105.24"
   enable-background="new 0 0 199.81 105.24"
   xml:space="preserve"
   sodipodi:docname="quaint-manicule.svg"
   inkscape:version="1.3.2 (091e20e, 2023-11-25, custom)"
   inkscape:export-filename="manicule0.png"
   inkscape:export-xdpi="96"
   inkscape:export-ydpi="96"
   xmlns:inkscape="http://www.inkscape.org/namespaces/inkscape"
   xmlns:sodipodi="http://sodipodi.sourceforge.net/DTD/sodipodi-0.dtd"
   xmlns="http://www.w3.org/2000/svg"
   xmlns:svg="http://www.w3.org/2000/svg"><defs
   id="defs1" /><sodipodi:namedview
   id="namedview1"
   pagecolor="#ffffff"
   bordercolor="#000000"
   borderopacity="0.25"
   inkscape:showpageshadow="2"
   inkscape:pageopacity="0.0"
   inkscape:pagecheckerboard="0"
   inkscape:deskcolor="#d1d1d1"
   inkscape:zoom="4.3291127"
   inkscape:cx="99.904999"
   inkscape:cy="52.551184"
   inkscape:window-width="1920"
   inkscape:window-height="1009"
   inkscape:window-x="1912"
   inkscape:window-y="-8"
   inkscape:window-maximized="1"
   inkscape:current-layer="Layer_1" />
<path
   d="M27.136,87.554L27.136,87.554c-1.654,2.029-2.264,4.833-1.663,7.298c0.611,2.507,3.736,4.546,6.204,4.692  c4.749,0.284,8.853-5.263,6.476-5.799c-2.765-0.62-5.93-1.095-7.889-3.219c-0.709-0.77-0.417-2.11-1.039-2.955  C28.779,86.963,27.635,86.761,27.136,87.554 M97.238,86.55c1.837,2.367,5.344,2.681,8.117,3.787c1.08,0.432,2.602,0.245,3.089-0.866  c1.309-2.979-2.405-5.094-4.799-5.7C100.215,82.903,95.971,84.918,97.238,86.55z M141.17,77.899  c-1.063,0.485-2.259,0.584-3.325,1.06c-3.612,1.611-10.605,4.455-14.416,5.243c-1.097,0.228-1.292-1.234-2.197-1.485  c-3.478-0.965-7.129-1.021-10.629-1.896c-2.652-0.663-5.427-0.565-8.078-0.068c-3.236,0.605-2.531,1.628,0.672,1.699  c2.386,0.053,5.383,1.343,6.622,3.266c0.985,1.528,0.539,4.02,0.976,5.754c0.142,0.56,0.127,1.17,0.727,1.297  c0.823,0.176,1.579,0.974,2.403,0.741c1.272-0.358,1.979-0.342,3.033,0.495c1,0.793,2.786-0.575,3.864,0.155  c0.268,0.182,0.111,1.029,0.358,1.236c1.038,0.874,4.108-0.012,7.264-0.926c0.552-0.16,0.239-1.196,0.655-1.59  c0.534-0.507,1.065,0.365,1.356,0.818c0.436,0.676,1.441,0.77,1.943,0.375c0.564-0.444,0.055-1.551,0.534-2.081  c0.523-0.578,1.273,0.445,1.728,0.879c0.527,0.504,1.294,0.616,1.75,0.207c0.481-0.433,0.149-1.566,0.753-1.788  c0.776-0.284,1.451,1.389,2.206,1.068c0.744-0.315-0.001-2.017,0.754-2.305c1.183-0.452,2.14,2.343,3.296,1.322  c0.569-0.502-0.041-1.486-0.245-2.236c-0.421-1.539,0.804-1.633,1.837-0.563c1.222,1.266,2.82,1.06,2.415-0.381  c-0.832-2.959,1.602-1.194,2.357-1.774c0.332-0.255,0.163-0.839,0.37-1.207c0.488-0.869,1.786-1.219,1.986-2.24  c0.521-2.661-1.038-6.393-4.11-6.962C146.093,75.653,142.922,77.099,141.17,77.899z M105.253,72.79  c-0.58-2.031-1.884-3.778-3.741-4.387c-3.85-1.26-10.472-0.148-6.971,3.899c0.83,0.96,2.183,1.421,3.481,1.556  c2.071,0.214,3.655,2.153,5.687,2.228C104.94,76.13,105.664,74.229,105.253,72.79z M101.416,66.684  c2.313,0.547,4.876,2.188,5.319,5.98c0.221,1.893-0.69,3.445-0.152,4.591c0.456,0.973,1.333,0.956,2.469,0.799  c2.561-0.355,4.938,0.937,7.526,0.892c0.532-0.009,0.818,0.725,1.327,0.893c0.808,0.265,1.697-0.084,2.533,0.068  c1.23,0.224,2.457,1.353,3.692,0.78c0.492-0.229,0.552-1.062,1.068-1.229c0.762-0.246,1.373,0.816,2.162,0.913  c0.514,0.063,1.283,0.221,1.521-0.241c0.402-0.781-0.798-2.171-0.052-2.628c0.866-0.53,1.772,1.296,2.774,1.193  c0.548-0.056,0.241-1.218,0.724-1.482c0.97-0.53,2.157,1.139,3.098,0.514c0.538-0.357-0.133-1.674,0.482-1.875  c1.127-0.368,2.285,1.643,3.365,1c0.673-0.4-0.044-1.648,0.4-2.279c0.605-0.856,2.041,0.636,2.861,0.16  c0.544-0.316-0.016-1.436,0.482-1.827c0.716-0.563,2.023,0.21,2.697-0.405c0.416-0.38-0.836-1.056-0.62-1.572  c0.435-1.042,1.995-0.384,2.964-0.802c0.691-0.298,0.968-1.006,1.521-1.43c0.442-0.34,1.326-0.156,1.538-0.677  c0.229-0.562-0.62-1.344-0.198-1.758c0.825-0.809,3.304-0.359,2.951-1.719c-0.557-2.15-2.274-4.026-4.364-5.059  c-1.122-0.554-2.408-0.452-3.567-0.15l0,0c-1.31,0.301-2.511,0.919-3.614,1.671c-1.141,0.777-2.509,1.141-3.606,1.97  c-2.711,2.045-5.823,3.429-8.85,4.911c-1.485,0.728-3.107,1.14-4.441,2.12c-0.717,0.525-1.549,0.245-2.284,0.017  c-2.617-0.813-5.367-1.105-7.979-1.93c-4.341-1.37-8.648-3.118-13.231-3.408c-0.74-0.047-5.305,0.494-4.132,1.564  C98.48,66.869,99.11,66.139,101.416,66.684 M111.475,63.961c2.006,0.745,3.743,0.944,5.754,1.672  c2.339,0.846,4.619,1.931,7.083,2.133c1.547,0.126,2.941-1.093,4.171-2.06c1.848-1.455,4.092-2.254,6.19-3.274  c2.519-1.226,4.818-2.848,7.437-3.878c4.383-1.721-1.163-2.437-2.731-2.49c-2.6-0.09-4.777-1.681-7.1-2.671  c-1.297-0.553-2.303-2.528-3.676-2.055c-1.988,0.685-3.302,2.584-5.015,3.799c-1.238,0.879-2.637,3.04-4.063,2.232  c-1.771-1.004-5.516-4.737-10.981-6.497c-2.131-0.686-6.315-0.479-8.401,0.693c-0.832,0.467-1.938,1.9-1.194,2.4  c2.808,1.886,5.963,0.534,9.467,5.041C109.867,60.875,110.05,63.432,111.475,63.961z M106.733,60.029  c-1.323-2.346-4.786-3.782-7.367-3.504c-1.428,0.154-1.734,1.752-1.917,2.844c-0.165,0.983,1.123,1.536,1.948,1.926  c2.837,1.342,5.718,1.883,8.806,2.067C109.468,63.438,107.244,60.935,106.733,60.029z M96.402,31.881L96.402,31.881  c-0.651,1.852-0.926,3.804-1.491,5.683c-0.914,3.039-2.198,5.978-3.959,8.625c-2.407,3.62-5.497,7.287-9.491,9.198  c-10.012,4.793-12.356,8.256-25.213,7.493c-8.397-0.498-13.147-4.397-18.34-10.22c-2.832-3.175-4.134-7.576-4.291-11.745  c-0.031-0.804-0.867-0.723-1.076-0.086c-0.538,1.637-1.13,2.99-1.096,4.7c0.179,9.111,2.654,14.799,9.707,21.124  c1.978,1.774,4.375,3.025,6.479,4.501c2.934,2.058,1.082,1.715-1.456,0.808c-2.819-1.009-5.514-2.372-8.026-4.046  c-1.864-1.241-3.542-2.821-5.644-3.637c-1.932-0.75-0.875,0.513-0.382,1.357c1.876,3.214,3.835,4.934,6.406,7.497  c2.125,2.118,4.976,3.258,7.737,4.286c2.323,0.865,4.881,0.776,7.233,1.456c1.467,0.424,2.25,1.021,0.029,0.96  c-1.833-0.05-3.656-0.588-5.491-0.696c-2.298-0.137-4.74-0.508-6.955-1.264c-4.898-1.671-3.835,0.521-0.851,1.978  c3.432,1.676,5.177,1.799,8.487,2.961c2.433,0.854,5.349-0.048,7.562,1.228c1.051,0.606-2.284,0.908-3.486,1.061  c-1.98,0.251-3.831,0.024-5.799-0.208c-3.894-0.457-4.41,0.585-0.443,2.138c3.048,1.194,7.322,1.536,10.559,1.568  c1.93,0.02,10.185-2.067,7.505-0.189c-1.147,0.806-6.571,2.533-8.128,2.458c-2.997-0.145-3.79,0.974,0.383,1.706  c4.852,0.853,7.439-0.218,12.045-1.511c0.806-0.226,3.097-0.729,2.478-0.181c-2.334,2.067-6.652,1.488-8.389,4.067  c-0.945,1.404,3.406,0.087,5.08-0.159c1.777-0.263,3.692-0.482,5.345-1.185c4.018-1.708,2.864,0.752-0.718,2.344  c-1.649,0.733-2.225,2.347,0.883,1.796c2.421-0.429,4.757-1.166,7.165-1.624c1.881-0.357,3.587,0.064,1.136,0.978  c-0.931,0.347-2.01,0.717-2.833,1.321c-2.779,2.038-0.19,2.343,1.504,1.938c1.208-0.289,3.993-1.842,5.17-1.822  c0.9,0.016-1.766,2.546,0.163,2.403c1.853-0.138,3.882-1.378,5.545-0.514c0.706,0.367-2.342,1.351-1.637,1.741  c1.402,0.776,3.245,0.367,4.799-0.194c1.952-0.704-0.21,1.492,12.482-0.354c1.867-0.271,3.738-0.521,5.622-0.607  c3.463-0.158,13.08-1.424,3.442-3.434c-4.077-0.85-12.464-3.157-16.139-4.816c-1.802-0.813-3.762-1.96-4.361-3.835  c-0.507-1.588-0.479-3.294-0.754-4.937c-0.096-0.576-0.325-1.408-1.155-1.146c-1.835,0.58-3.504,0.484-5.26,1.366  c-2.198,1.103-6.598,1.058-3.723-0.147c1.607-0.673,3.118-1.56,4.67-2.344c1.733-0.875,1.305-2.024-1.019-1.478  c-1.724,0.406-3.751,1.33-5.409,1.986c-0.61,0.241-1.816-0.064-1.163-0.775c0.863-0.94,2.127-1.014,3.147-1.894  c1.74-1.504,0.417-1.875-1.302-1.287c-1.086,0.371-2.212,0.767-3.293,1.155c-4.847,1.745-5.617,1.126-3.9-0.245  c0.684-0.546,2.027-0.95,3.263-1.773c1.428-0.951,0.412-1.299-0.575-1.167c-1.344,0.181-2.816,0.996-4.009,1.665  c-3.056,1.713-4.332,1.112-3.251-0.055c0.668-0.723,3.393-2.26,2.434-2.742c-1.779-0.895-6.577,4.051-7.821,2.438  c-0.893-1.156,3.533-2.667,2.193-3.381c-1.778-0.949-3.933,1.171-5.958,0.922c-0.787-0.098-1.863-0.259-2.154-0.991  c-0.28-0.705,1.687-1.424,1.15-1.96c-1.375-1.376-3.787,0.357-5.597-0.147c-0.764-0.213-0.086-1.607-0.681-1.96  c-2.234-1.323-4.727-2.132-6.962-3.455c-3.046-1.803-7.942-6.256-1.366-2.93c2.905,1.471,5.786,3.212,9.061,3.671  c7.285,1.021,16.947,0.323,23.791-2.538c6.545-2.737,11.335-6.108,15.183-12.124c3.56-5.565,9.622-8.539,17.161-3.3  c2.071,1.439,4.241,2.696,6.519,3.731c1.315,0.598,2.388-0.707,3.373-1.392c1.031-0.715,2.235-2.183,1.345-3.292  c-1.994-2.482-3.296-5.351-4.274-8.319c-0.193-0.589-0.966-0.746-1.524-0.918c-3.673-1.129-7.521-1.718-11.104-3.128  c-1.546-0.608-3.165-1.016-4.605-1.865C100.327,33.14,98.461,32.088,96.402,31.881z M25.313,28.404L25.313,28.404  c-6.647,0.644-11.126,6.296-7.497,12.494c1.139,1.944,3.091,3.198,4.813,4.645c0.609,0.511,0.017,1.316-0.926,0.922  c-2.309-0.966-7.742-0.133-9.806,1.323c-3.323,2.344-5.893,5.97-4.859,10.271c1.227,5.108,6.213,7.935,11.305,7.229  c2.112-0.293,4.146-1.155,6.273-1.043c0.207,0.011,0.146,0.494-0.018,0.62c-1.54,1.195-3.585,1.673-4.916,3.176  c-1.734,1.958-2.631,4.673-2.21,7.217c0.681,4.115,5.331,7.196,9.375,6.742c1.916-0.215,3.625-1.246,5.459-1.783  c1.064-0.313,1.605-1.338,2.008-2.249c0.668-1.515-0.175-3.177-0.866-4.528c-3.194-6.248-6.491-14.711-5.575-21.374  c0.877-6.381,1.959-12.884,5.036-18.617c0.384-0.716,1.389-1.708,0.771-2.335c-1.441-1.463-3.462-2.319-5.467-2.844  C27.263,28.022,26.265,28.249,25.313,28.404z M26.494,12.386c-2.161,1.978-1.393,6.323,0.047,8.496  c1.019,1.537,2.768,2.175,4.231,3.137c0.627,0.413,1.603,0.815,2.111,0.311c0.908-0.902-0.644-2.146-0.655-3.305  c-0.015-1.551,0.059-3.244,0.982-4.516c1.214-1.671,3.452-2.1,5.092-3.244c0.184-0.128,0.116-0.712-0.017-0.892  c-1.423-1.924-3.9-2.545-6.174-2.697C29.336,9.49,28.404,10.637,26.494,12.386z M149.158,9.533L149.158,9.533  c-0.879,2.296-0.397,4.786-0.754,7.165c-0.26,1.732,0.297,6.723,1.236,8.242c0.43,0.696,1.61,1.901,2.099,1.219  c0.976-1.364-0.965-5.313,0.981-5.041c2.079,0.292,1.931,3.713,3.051,5.545c0.479,0.784,2.161,0.323,2.731-0.388  c0.839-1.046-0.613-4.023,1.15-3.882c1.802,0.144,1.593,2.839,2.663,4.123c0.377,0.453,1.212,0.877,1.503,0.457  c0.63-0.907-0.722-2.946,0.475-3.261c1.487-0.393,2.028,2.033,3.218,2.8c1.474,0.952,1.695-2.349,1.788-3.011  c0.108-0.776,0.229-4.993,0.642-7.331c0.586-3.318,1.573-1.225,1.437,0.019c-0.349,3.184,0,7.189,1.097,10.181  c0.319,0.869,1.007,2.562,1.948,1.878c0.627-0.455,0.07-2.571,1.09-2.063c0.989,0.492,1.109,2.27,2.223,2.464  c0.79,0.138,1.196-1.182,1.278-1.9c0.125-1.106,0.981-1.012,1.358-0.232c0.475,0.979,0.848,2.364,2.077,2.49  c1.092,0.113,0.983-0.763,1.074-1.664c0.205-2.033,0.933-2.207,1.696-0.673c0.399,0.801,0.914,1.427,1.731,1.854  c0.897,0.47,1.953,0.234,2.771-0.233c2.203-1.258,4.808-2.546,4.209-5.601c-0.913-4.668-6.572-5.641-10.374-6.544  c-4.008-0.953-8.055-1.769-12.181-2.206c-0.954-0.101-1.654-0.991-2.653-1.021c-4.409-0.135-9.95-2.469-14.691-2.628  C152.38,10.236,150.782,9.771,149.158,9.533z M98.069,4.182L98.069,4.182c-0.716,0.168-0.713,0.404,0.013,0.677  c2.529,0.952,4.619,2.373,6.937,3.11c4.316,1.374,8.454,3.905,12.615,5.571c2.756,1.104,9.605,3.914,11.801,5.313  c1.572,1.001,3.113,2.034,4.493,3.296c1.235,1.129,3.235,2.027,4.614,1.06c0.788-0.552,0.184-2.04,0.818-2.757  c0.381-0.429,1.384-0.417,1.771,0.073c0.657,0.833,0.521,2.296,1.49,2.826c0.816,0.447,1.923-0.213,2.283-1.094  c0.522-1.273,0.954-2.601,1.134-3.959c0.374-2.83,0.707-5.675,0.836-8.531c0.046-1.027-6.016-1.053-7.058-1.262  c-3.831-0.77-8.162-0.661-12.055-1.246c-6.108-0.916-12.807-1.63-18.987-2.063C105.203,4.945,101.671,3.941,98.069,4.182z   M136.25,39.542c0.571,4.897,8.342,8.312,12.874,7.449c3.272-0.624-0.27-2.9-1.323-3.813c-1.47-1.275-6.6-4.973-7.178-6.484  C139.739,34.382,135.894,36.479,136.25,39.542z M139.571,32.79c-1.028-1.503-2.617-2.493-3.838-3.847  c-1.979-2.195-3.841-4.505-5.98-6.544c-0.929-0.886-2.346-1.013-3.434-1.693c-1.824-1.142-3.893-1.788-5.769-2.831  c-4.085-2.268-10.126-4.026-14.623-6.471c-7.819-4.251-12.584-7.317-21.038-4.92c-5.372,1.524-10.534,2.621-15.769,4.994  c-6.127,2.777-16.689,6.121-21.624,10.646c-3.705,3.396-5.666,4.398-8.41,8.936c-2.668,4.41-3.806,8.847-1.496,13.757  c0.345,0.732,0.001,1.673,0.479,2.3c0.4,0.526,1.612-0.027,1.913,0.586c0.402,0.82-0.412,2.069,0.22,2.731  c0.449,0.471,1.472-0.789,1.921-0.319c0.925,0.968,0.121,2.896,1.051,3.856c0.771,0.795,0.669-1.387,1.28-1.81  c0.436-0.302,1.366-0.291,1.534,0.229c0.492,1.519,0.219,3.384,1.378,4.571c0.139,0.142,0.717,0.163,0.789-0.021  c0.291-0.751-0.119-1.661,0.203-2.396c0.195-0.448,0.989-0.622,1.305-0.229c0.869,1.081,0.863,2.615,1.28,3.934  c0.193,0.61,1.144,1.082,1.34,0.642c0.449-1.008-0.232-2.192-0.232-3.296c0-0.898,1.064-0.954,1.312,0.035  c0.329,1.308,0.89,2.345,1.505,3.554c0.196,0.386,1.25,0.234,1.246-0.198c-0.017-1.626-1.657-3.199-1.043-4.761  c0.183-0.467,1.119-0.064,1.465,0.448c1.375,2.037,3.535,6.583,5.566,4.92c1.826-1.495-4.125-4.234-2.594-6.454  c0.639-0.927,1.555,1.302,2.409,1.852c1.8,1.161,3.195,3.914,5.523,3.399c0.42-0.093-0.334-0.77-0.621-1.085  c-0.95-1.046-1.531-2.352-2.137-3.619c-0.38-0.797,0.864-0.843,1.246-0.569c1.493,1.075,2.931,2.225,4.592,3.068  c0.808,0.409,2.797,0.764,2.439-0.336c-0.38-1.168-1.818-1.573-2.686-2.435c-0.781-0.775-0.065-1.859,1.005-1.508  c2.015,0.661,3.701,2.851,5.958,2.098c0.194-0.064,0.074-0.706-0.099-0.823c-1.259-0.85-4.197-1.951-3.011-3.61  c0.378-0.529,1.317-0.033,1.935,0.172c1.054,0.351,1.855,1.243,2.985,1.465c0.849,0.167,2.472-0.139,2.124-0.957  c-0.479-1.125-2.374-1.121-2.869-2.296c-0.302-0.717,0.201-1.826,0.943-1.875c0.964-0.063,2.613,0.454,4.304,1.083  c1.87,0.696,3.949-1.206,2.113-2.139c-1.509-0.767-2.004-0.774-3.237-1.663c-0.84-0.606-0.679-2.04,0.547-1.702  c1.917,0.529,4.907,2.111,5.95,0.284c0.96-1.681-3.082-1.334-4.278-2.413c-0.498-0.448-1.245-1.647-0.611-1.909  c2.004-0.829,4.405,0.486,6.458-0.586c0.614-0.32,0.731-1.275,0.267-1.478c-1.445-0.63-5.436,0.125-4.455-1.771  c0.74-1.431,3.253,0.191,4.817-0.289c0.643-0.197,1.753-0.647,1.417-1.314c-0.286-0.568-0.875-0.854-1.479-1.134  c-1.741-0.807-2.478-1.789,0.037-1.993c0.522-0.042,1.062-0.043,1.558-0.165c0.492-0.121,0.826-0.816,0.521-1.258  c-0.367-0.534-0.987-1.031-1.434-1.566c-1.309-1.569-0.18-2.108,0.627-1.489c0.446,0.342,0.797,0.457,1.028,0.254  c0.453-0.397,0.335-1.385,0.459-1.973c0.172-0.821,0.89-0.626,1.047-0.035c0.29,1.095,0.355,2.316,1.094,3.188  c0.176,0.207,0.973,0.431,1.064,0.176c0.271-0.754,0.105-1.6,0.106-2.413c0.001-2.102,0.987-0.854,1.472,0.233  c0.578,1.293,0.948,2.715,1.903,3.757c0.164,0.179,0.661,0.182,0.729-0.052c0.299-1.037-1.053-3.235,0.025-3.231  c2.223,0.01,1.229,5.421,3.399,5.127c1.408-0.191-0.604-4.856,1.081-4.196c1.9,0.744,1.241,3.932,2.603,5.506  c0.268,0.309,1.235,0.575,1.293-0.095c0.114-1.319-0.903-2.94,0.013-4.058c0.22-0.268,0.694,0.256,0.883,0.551  c0.839,1.313,0.96,2.968,1.797,4.287c0.478,0.753,1.23,2.618,1.947,1.832c1.198-1.314-0.611-3.56,0-5.196  c0.276-0.739,1.34,0.131,1.56,0.659c0.586,1.41,0.622,3.013,1.288,4.412c0.325,0.682,1.404,1.521,1.779,0.935  c0.72-1.122-0.538-2.789,0.039-3.985c0.335-0.694,1.326,0.327,1.668,0.845c1.078,1.636,1.701,3.523,2.417,5.342  c1.494,3.8,4.412,6.782,6.678,10.121c1.354,1.995,3.323,3.354,5.282,4.632c3.928,2.56,10.155,2.519,13.825-0.53  c0.553-0.459,1.812-1.957,0.27-2.019c-7.167-0.29-11.471-1.113-14.487-7.692c-0.792-1.729-0.083-3.697,0.806-5.187  c0.661-1.108,2.171-1.978,3.144-1.644C139.864,34.574,140.967,34.83,139.571,32.79z M95.131,2.183  c1.37-0.386,2.765,0.015,4.149-0.06c2.445-0.132,4.906-0.226,7.346,0.09c3.61,0.468,7.267-0.197,10.865,0.418  c1.802,0.308,3.678-0.119,5.472,0.301c2.041,0.479,10.53,1.392,12.521,1.517c2.771,0.174,5.577,0.369,8.259,1.181  c2.089,0.632,4.307,0.498,6.433,0.896c9.377,1.757,19.583,2.84,28.664,4.795c2.471,0.532,4.858,1.376,7.264,2.154  c2.913,0.942,6.009,1.674,8.509,3.546c1.594,1.192,2.045,3.202,2.826,4.916c0.593,1.297,0.399,2.822-0.043,4.102  c-2.355,6.82-11.394,6.744-17.117,5.609c-1.005-0.199-1.956-0.68-2.977-0.633c-1.647,0.075-3.301,0.619-4.951,0.207  c-3.606-0.901-7.411-0.198-11.016-1.142c-3.416-0.894-9.881-1.336-13.417-1.521c-2.577-0.135-6.725-1.913-7.694-0.53  c-0.64,0.912,2.892,4.902,4.52,6.67c1.931,2.097,3.386,3.936,5.67,5.669c3.183,2.417,5.229,5.585,3.954,9.621  c-0.515,1.63-3.535,5.125-5.096,5.618c-0.566,0.179-0.318,1.08,0.144,1.058c4.859-0.238,10.94,9.042,6.225,12.898  c-1.492,1.22-3.015,2.543-4.751,3.498c-1.23,0.678-1.27,1.338,0.239,1.521c4.159,0.502,4.412,5.945,4.218,8.387  c-0.129,1.63-1.092,3.45-2.494,4.47c-2.88,2.092-5.49,4.893-8.768,6.764c-3.798,2.169-7.948,3.547-11.986,5.179  c-3.02,1.221-6.316,1.381-9.47,2.099c-1.694,0.385-3.378,0.715-5.063,1.094c-5.642,1.271-12.534,2.129-18.255,2.594  c-1.895,0.154-3.809,0.06-5.695-0.245c-2.7-0.437-5.489,0.01-8.165-0.629c-3.896-0.931-8.465-1.392-12.503-2.099  c-1.53-0.268-3.023-0.728-4.45-1.34c-4.215-1.807-9.297-2.861-13.761-5.049c-4.068-1.994-8.001-4.265-11.594-7.023  c-1.475-1.131-5.358-6.916-4.799-0.99c0.131,1.39,1.204,2.426,1.573,3.718c0.444,1.557,0.635,3.214,0.345,4.847  c-0.375,2.105-2.615,6.618-4.804,7.346c-0.977,0.325-1.893,0.893-2.913,1.043c-3.142,0.462-9.617-0.586-10.693-4.17  c-1.104-3.678-1.751-5.538,0.172-9.651c0.272-0.582-1.034-0.397-1.534-0.418c-4.763-0.195-9.479-0.094-14.287-0.409  c-4.322-0.283-5.546,1.533-5.484-3.692c0.035-3.022-0.12-5.996-0.457-8.975c-0.285-2.519,0.391-7.449,0.138-8.607  c-0.358-1.639-0.571-3.363-0.086-4.998c0.934-3.146-0.383-7.696-0.258-10.957c0.087-2.299-0.235-4.623,0.112-6.898  c0.244-1.604,0.329-3.216,0.668-4.804c0.458-2.147-0.468-4.252-0.366-6.402c0.184-3.904-0.597-8.08,0.59-12.021  c0.713-2.369,0.621-3.345,5.394-2.361c2.442,0.504,5.144-0.05,8.07,0.328c2.238,0.289,5.535,2.101,6.747,0.207  c1.148-1.795-0.908-3.954-1.034-5.976C19.825,8.4,26.079,4.697,32.082,5.552c3.178,0.453,5.942,3.126,7.465,5.998  c1.968,3.71-1.381,7.768-0.692,10.788c0.227,0.995,1.244,0.699,1.788,0.323c1.908-1.317,3.954-2.401,5.924-3.619  c6.102-3.772,8.91-5.679,15.553-8.522c8.469-3.625,16.653-6.098,25.674-7.932C90.216,2.096,92.73,2.86,95.131,2.183z"
   id="path1" />
<path
   style="fill:#ffffff;stroke-width:0.864842;paint-order:markers stroke fill"
   d="m 59.980039,59.245739 c -0.380262,-0.319971 -1.369664,-1.610381 -2.198669,-2.867579 -1.408722,-2.136345 -2.126565,-2.788768 -2.687182,-2.442288 -0.406508,0.251236 -0.255396,1.562988 0.381691,3.313342 0.517374,1.421448 0.564168,1.72853 0.289856,1.902163 -0.179918,0.113885 -0.402971,0.208655 -0.495674,0.2106 -0.22665,0.0048 -1.076735,-1.687565 -1.556101,-3.097838 -0.463346,-1.363138 -0.983928,-1.796354 -1.517475,-1.262808 -0.317198,0.317199 -0.327227,0.559516 -0.07893,1.907083 0.214853,1.166052 0.219257,1.608896 0.018,1.810154 -0.45255,0.452548 -1.116266,-0.402024 -1.39668,-1.798306 -0.405566,-2.01946 -0.894832,-2.867615 -1.654213,-2.867615 -0.746823,0 -0.922371,0.330726 -0.922371,1.737716 0,2.406371 -1.378744,0.862064 -1.753668,-1.964252 -0.191564,-1.444077 -0.783069,-2.187779 -1.549815,-1.948591 -0.610443,0.190427 -0.821968,0.46665 -1.006013,1.313705 -0.322217,1.48299 -0.875211,0.747267 -1.120012,-1.490104 -0.17523,-1.601531 -0.528849,-1.977772 -1.486167,-1.581239 -0.923878,0.382684 -1.215552,0.130277 -1.156776,-1.001036 0.08437,-1.62401 0.03603,-1.765032 -0.605018,-1.765032 -0.982353,0 -1.414016,-0.379352 -1.574637,-1.383817 -0.08255,-0.516235 -0.426273,-1.741391 -0.763831,-2.722571 -1.263814,-3.673531 -0.646737,-7.517224 1.892025,-11.785177 1.66963,-2.806841 3.031602,-4.367837 6.419618,-7.357712 4.978907,-4.393812 7.574784,-5.862877 17.639974,-9.982856 2.774926,-1.135859 5.887797,-2.42869 6.917491,-2.872956 2.545131,-1.098111 6.633711,-2.4031798 12.564968,-4.0107216 4.89106,-1.3256182 5.011916,-1.3458226 7.9693,-1.3322977 2.741409,0.012537 3.197413,0.078262 5.236193,0.7547045 1.228298,0.4075342 3.723036,1.5229004 5.543867,2.4785919 5.03782,2.6441849 8.54925,4.3128029 11.85738,5.6345799 1.6516,0.659907 6.00467,2.621275 9.67348,4.358596 l 6.67057,3.158764 2.91569,3.233851 c 1.60364,1.778617 3.77312,4.052949 4.82107,5.054071 1.92721,1.84108 2.96723,3.199381 2.73607,3.573395 -0.0722,0.116904 -0.50579,0.103271 -1.01191,-0.03182 -0.48703,-0.129994 -1.16318,-0.166665 -1.50255,-0.08149 -1.67817,0.421195 -3.22281,2.905951 -3.25125,5.230065 -0.02,1.632582 1.02386,3.659126 2.94238,5.712448 2.1965,2.350837 4.89615,3.336787 10.06376,3.675443 1.28733,0.08436 2.38714,0.228701 2.44403,0.320752 0.2441,0.39497 -1.03542,1.746838 -2.31738,2.448407 -2.08873,1.143082 -3.98106,1.55457 -6.46466,1.405745 -2.47292,-0.148187 -4.22699,-0.739311 -6.35955,-2.143178 -2.4883,-1.638054 -3.6017,-2.775481 -6.41106,-6.549395 -3.43835,-4.618884 -4.19554,-5.877805 -5.5083,-9.158286 -1.3239,-3.308294 -2.27694,-4.80911 -3.11561,-4.906386 -0.78771,-0.09136 -0.94351,0.480242 -0.62451,2.291243 0.27898,1.583789 0.0129,2.220989 -0.75576,1.809632 -0.6016,-0.321964 -1.02181,-1.213119 -1.55684,-3.301651 -0.55783,-2.1775 -1.0099,-2.923491 -1.77164,-2.923491 -0.78551,0 -0.90376,0.675657 -0.47455,2.711517 0.27522,1.305477 0.29396,1.800539 0.0854,2.258174 -0.14688,0.322373 -0.37908,0.550394 -0.516,0.506711 -0.48644,-0.155198 -1.73138,-2.336225 -2.35331,-4.122826 -0.6044,-1.736212 -1.23469,-2.739541 -1.72098,-2.739541 -0.55789,0 -0.76022,1.147721 -0.47512,2.695056 0.29458,1.598722 0.16299,2.051124 -0.52032,1.788911 -0.53976,-0.207125 -0.93099,-1.057514 -1.42026,-3.087121 -0.43716,-1.813434 -1.17804,-2.877472 -1.90689,-2.73863 -0.33149,0.06315 -0.41835,0.423579 -0.51434,2.13425 -0.0651,1.159686 -0.2237,2.093945 -0.36335,2.139987 -0.47291,0.15591 -1.07887,-0.84269 -1.5282,-2.518438 -0.51008,-1.9023 -0.92624,-2.492963 -1.75646,-2.492963 -0.55975,0 -0.56989,0.03066 -0.42307,1.279819 0.0827,0.7039 0.175,1.405545 0.20504,1.559211 0.0301,0.153665 -0.10128,0.279392 -0.29185,0.279392 -0.21158,0 -0.81696,-0.966904 -1.554744,-2.483188 -0.943092,-1.938248 -1.31061,-2.483188 -1.674708,-2.483188 -0.423727,0 -0.466463,0.148803 -0.466463,1.62421 0,1.266133 -0.08034,1.655037 -0.364402,1.764043 -0.563841,0.216366 -1.037017,-0.434249 -1.472298,-2.024398 -0.584413,-2.134961 -1.608521,-2.484279 -1.628213,-0.555375 -0.01121,1.09847 -0.311385,1.413243 -1.033801,1.084089 -1.848566,-0.842263 -2.095607,0.405869 -0.443936,2.242923 1.474637,1.640153 1.33608,1.870436 -1.333054,2.215558 -1.246521,0.161178 -1.791367,0.620961 -1.356608,1.144812 0.152932,0.184271 0.827557,0.645158 1.499166,1.024191 1.563732,0.882514 1.727488,1.288856 0.75771,1.88015 -0.875709,0.533941 -1.039738,0.543308 -3.156642,0.1803 -1.471099,-0.252266 -1.651805,-0.239141 -2.083236,0.151297 -0.547906,0.49585 -0.610173,1.108996 -0.151296,1.489829 0.176611,0.146575 1.182438,0.364738 2.235174,0.484804 2.022668,0.230689 2.445106,0.427806 2.213014,1.032627 -0.287712,0.749766 -1.677355,1.085907 -3.816285,0.92312 -3.017496,-0.229652 -3.770997,0.229599 -2.872446,1.750726 0.423143,0.716323 0.817475,0.913416 3.012715,1.505789 1.786368,0.482044 2.070015,0.773644 1.471426,1.51268 -0.574302,0.709053 -1.859295,0.706542 -4.005971,-0.0078 -2.087381,-0.694637 -2.601138,-0.607347 -2.601138,0.441954 0,0.776681 0.07268,0.846199 1.847954,1.767535 2.656983,1.37893 2.802345,1.559232 1.919894,2.381361 -0.662283,0.617014 -1.523561,0.591664 -3.7189,-0.109447 -2.863437,-0.914476 -3.860353,-0.680089 -3.860353,0.907625 0,0.809831 0.358129,1.237073 1.537327,1.834015 0.400865,0.202929 0.906144,0.546258 1.12284,0.762953 0.371325,0.371328 0.370046,0.411503 -0.02227,0.69837 -0.681377,0.498234 -1.932608,0.355421 -3.211977,-0.366609 -1.715635,-0.968244 -3.011852,-1.324812 -3.460993,-0.952061 -0.194601,0.161507 -0.353821,0.573314 -0.353821,0.915127 0,0.725701 0.768063,1.513107 2.377675,2.437558 1.22237,0.702044 1.303408,1.121084 0.237402,1.227621 -0.486608,0.04863 -1.372025,-0.284497 -2.916272,-1.097223 -2.294133,-1.207381 -2.87629,-1.362087 -3.348513,-0.889863 -0.53566,0.535659 -0.306319,1.294942 0.589035,1.950134 2.288187,1.674421 2.683414,2.392557 1.316745,2.392557 -0.993088,0 -1.702783,-0.349744 -4.282812,-2.110606 -2.115951,-1.444129 -3.213028,-1.746187 -3.213028,-0.884641 0,0.628887 0.93661,2.442797 1.940247,3.757634 0.448508,0.587578 0.716369,1.129571 0.595244,1.204429 -0.520725,0.321826 -2.344217,-0.9105 -4.594611,-3.105068 -2.422616,-2.362516 -3.068495,-2.697107 -3.215144,-1.665572 -0.135235,0.951248 0.153473,1.545795 1.574499,3.242438 1.461537,1.745007 1.680591,2.392442 0.94302,2.787179 -0.682477,0.36525 -1.071583,0.29224 -1.8261,-0.342643 z"
   id="path2" /><path
   style="fill:#ffffff;stroke-width:0.864842;paint-order:markers stroke fill"
   d="m 90.780727,102.40526 c -0.873486,-0.22625 -0.882977,-0.50844 -0.03396,-1.00937 1.697683,-1.00166 0.615131,-1.652869 -1.923551,-1.15712 -3.528612,0.68907 -3.865247,0.61577 -3.124366,-0.680263 0.827348,-1.447292 0.192735,-1.462348 -3.233919,-0.07672 -2.144762,0.867273 -3.805641,1.098573 -4.304879,0.599513 -0.479584,-0.47941 0.624266,-1.410594 2.976663,-2.511044 1.175183,-0.54975 2.136696,-1.104917 2.136696,-1.233705 0,-0.359314 -1.067992,-0.546639 -2.147602,-0.376685 -0.533952,0.08406 -2.50598,0.512346 -4.382286,0.951757 -1.876306,0.439411 -3.767213,0.798928 -4.202011,0.798928 -1.623323,0 -1.202692,-0.8697 0.98529,-2.037191 1.57442,-0.840099 2.70293,-1.944244 2.507546,-2.453406 -0.188052,-0.490057 -0.579973,-0.456165 -2.505867,0.216702 -1.683472,0.588169 -8.613897,1.963953 -9.8933,1.963953 -0.630186,0 -0.679531,-0.04855 -0.462145,-0.45474 0.375308,-0.701271 1.971864,-1.513343 4.508266,-2.293087 2.396668,-0.736786 3.811404,-1.44206 3.811404,-1.900061 0,-0.390154 -1.577011,-0.121972 -4.919883,0.836661 -4.694341,1.346195 -8.171506,1.482142 -11.307461,0.442088 -1.810896,-0.600589 -1.446271,-0.88061 1.443714,-1.108726 2.891189,-0.228211 8.546786,-2.224832 8.546786,-3.017311 0,-0.499149 -1.177611,-0.467602 -4.78811,0.128264 -3.444752,0.568514 -7.099568,0.488488 -10.573005,-0.231507 -3.027373,-0.627533 -5.890353,-1.881563 -5.890353,-2.580069 0,-0.09577 2.468751,-0.162428 5.486113,-0.148118 5.549393,0.02632 6.808991,-0.120438 6.941621,-0.808769 0.10656,-0.553041 -1.136464,-0.884322 -4.136105,-1.102316 -2.268369,-0.164851 -3.263005,-0.379786 -6.467838,-1.397667 -4.101177,-1.30257 -6.428956,-2.351524 -7.421939,-3.344505 -1.184997,-1.184998 -0.48443,-1.312703 2.483327,-0.45268 2.116509,0.613339 4.176764,0.969603 9.351665,1.617112 3.20302,0.400778 4.740299,0.398283 4.728888,-0.0077 -0.01268,-0.450922 -1.373669,-0.87359 -4.477246,-1.390452 -3.358757,-0.559359 -6.352187,-1.568122 -9.029422,-3.042849 -2.056106,-1.132586 -6.841583,-5.949049 -8.638088,-8.694022 -0.734173,-1.12178 -1.276159,-2.098301 -1.204414,-2.170045 0.290243,-0.290244 2.23893,0.733577 4.529635,2.379827 3.97593,2.857359 8.877508,5.343159 11.715363,5.941363 2.475552,0.521832 1.896591,-0.174761 -2.669096,-3.211404 -6.91448,-4.598825 -11.173642,-10.095732 -12.73954,-16.441748 -0.577781,-2.341538 -1.014442,-6.53849 -0.846416,-8.1353 0.07353,-0.698757 0.3478,-1.891324 0.609495,-2.650148 0.820618,-2.379504 1.172978,-2.3339 1.413384,0.182927 0.339041,3.549438 1.452089,6.672722 3.295026,9.246055 1.319095,1.84188 5.851944,6.249914 7.74112,7.527964 1.859952,1.258278 4.811884,2.643805 6.610785,3.102855 4.847402,1.236981 12.512885,1.089895 17.083829,-0.327802 1.845771,-0.572473 3.300401,-1.260071 9.7115,-4.590582 5.517789,-2.866444 6.884159,-3.793258 9.142419,-6.201336 4.388079,-4.679194 7.178639,-10.078955 8.622524,-16.684673 0.208276,-0.952851 0.468868,-1.876094 0.579091,-2.051652 0.327099,-0.520974 1.696733,-0.1182 4.384115,1.289253 3.10751,1.627482 7.59284,3.211957 12.97805,4.584587 2.32299,0.592107 4.45699,1.182886 4.74222,1.312844 0.34029,0.155046 0.69668,0.722617 1.03658,1.650775 0.72843,1.989155 2.32876,5.131773 3.3078,6.495622 0.93732,1.305733 1.00933,1.800909 0.39696,2.729665 -0.51217,0.77679 -2.64212,2.419436 -3.37603,2.603636 -0.67102,0.168415 -3.56688,-1.270321 -6.8396,-3.398094 -3.97614,-2.585097 -6.80441,-3.454964 -9.71129,-2.986825 -3.22127,0.518771 -5.82857,2.435781 -8.469841,6.227428 -3.444694,4.944998 -6.676735,7.742308 -12.040001,10.42054 -3.006632,1.50141 -4.682354,2.135124 -7.566058,2.861279 -4.99069,1.256724 -11.327042,1.767169 -16.289197,1.31223 -4.06803,-0.372965 -5.019304,-0.664037 -9.89186,-3.026724 C 44.934501,62.431597 43.7734,62.043439 43.7734,62.66802 c 0,0.164786 0.389803,0.672063 0.866228,1.127284 1.674551,1.600016 3.8223,2.966522 7.3513,4.677265 3.331913,1.615202 3.563406,1.769266 3.566714,2.373711 0.0058,1.058129 0.292843,1.287975 1.572534,1.259142 0.640374,-0.01443 1.633083,-0.131283 2.206025,-0.259681 1.029883,-0.230803 1.595101,-0.153706 2.175924,0.2968 0.232988,0.180711 0.139401,0.39597 -0.425595,0.978898 -0.988847,1.020232 -0.691805,1.589866 1.013688,1.943925 1.104141,0.229218 1.42781,0.194642 3.061389,-0.327019 1.852976,-0.591722 3.428128,-0.757143 3.658605,-0.384224 0.06969,0.112755 -0.443916,0.692504 -1.141338,1.288331 -0.859788,0.734538 -1.268041,1.255537 -1.268041,1.61823 0,1.17869 1.272751,0.93785 4.391702,-0.831027 3.453296,-1.958498 4.617008,-1.762144 2.189169,0.36938 -1.793134,1.574284 -1.958468,2.200957 -0.580673,2.200957 0.638897,0 1.518186,-0.313778 2.88974,-1.031211 2.166169,-1.133085 4.099722,-1.794146 4.640627,-1.586582 0.619649,0.237784 0.225009,0.635489 -1.566148,1.578319 -2.062933,1.085888 -2.724648,1.635157 -2.724648,2.261644 0,0.412937 0.107059,0.442957 1.097223,0.307654 0.603472,-0.08246 2.732317,-0.691167 4.730763,-1.352681 2.881108,-0.953685 3.692552,-1.143743 3.918503,-0.917791 0.392427,0.392427 -0.531797,1.292322 -2.281703,2.221638 -1.088752,0.578199 -1.343439,0.822935 -1.343439,1.290941 0,0.872458 0.649114,0.83005 3.246727,-0.212118 2.919229,-1.171198 4.607404,-1.556991 5.083647,-1.161746 0.547089,0.454045 0.0067,0.861059 -3.348102,2.521739 -1.660351,0.821903 -3.018821,1.627495 -3.018821,1.790205 0,0.529016 2.695778,0.354555 4.504387,-0.291508 0.889328,-0.317682 2.598535,-0.793262 3.79824,-1.056845 2.669258,-0.586452 2.616617,-0.630771 2.981389,2.509884 0.349291,3.007355 0.64461,3.847763 1.735418,4.938571 1.99434,1.994339 8.664616,4.404614 18.486506,6.680023 1.63798,0.379468 3.45057,0.898914 4.02798,1.154326 0.91115,0.403043 1.00595,0.507917 0.71775,0.793939 -0.5074,0.50356 -2.81747,1.022697 -5.76043,1.294517 -1.46104,0.13494 -4.68341,0.49221 -7.16082,0.79391 -6.78386,0.82616 -8.388756,0.90205 -10.340881,0.48901 -1.445553,-0.30586 -1.803654,-0.31104 -2.579425,-0.0373 -1.084462,0.38262 -2.729608,0.59127 -3.364791,0.42674 z"
   id="path3" /><path
   style="fill:#ffffff;stroke-width:0.864842;paint-order:markers stroke fill"
   d="m 135.77056,23.116479 c -0.5379,-0.249224 -1.68133,-1.018467 -2.54093,-1.709429 -3.32495,-2.672628 -5.68822,-3.925755 -13.41439,-7.112986 -1.86679,-0.770092 -5.10929,-2.213343 -7.20556,-3.207223 C 108.61176,9.1913558 106.64167,8.3411464 105.10237,7.8469944 104.59418,7.6838547 103.19089,7.0682468 101.98395,6.4789771 100.777,5.8897074 99.321738,5.2161368 98.750028,4.9821536 L 97.710554,4.5567295 98.394978,4.3641344 c 0.696657,-0.1960375 3.030442,-0.012027 7.631372,0.6017075 1.39751,0.1864195 4.9837,0.5529556 7.9693,0.8145246 2.9856,0.261569 7.66323,0.7760523 10.39474,1.1432962 2.7315,0.3672438 6.47361,0.7812852 8.31579,0.9200917 1.84218,0.1388068 4.54481,0.4024255 6.00585,0.5858194 1.46104,0.1833939 3.66339,0.4335607 4.89411,0.5559259 3.18959,0.317125 3.24932,0.3639376 3.06981,2.4057963 -0.77678,8.835773 -1.743,12.101075 -3.52021,11.896432 -0.627,-0.0722 -0.72842,-0.215396 -1.76936,-2.498248 -0.19257,-0.42231 -0.4759,-0.597889 -1.0544,-0.653417 -0.94362,-0.09057 -1.38896,0.384107 -1.38896,1.480456 0,1.598623 -1.46476,2.291171 -3.17246,1.49996 z"
   id="path4" /><path
   style="fill:#ffffff;stroke-width:0.864842;paint-order:markers stroke fill"
   d="m 181.83085,28.58443 c -0.23113,-0.169005 -0.69814,-0.822599 -1.0378,-1.452431 -0.84601,-1.568757 -1.52897,-1.67437 -1.89674,-0.293313 -0.55118,2.069803 -1.31192,2.167504 -2.40142,0.308408 -0.83889,-1.43145 -1.56789,-1.455932 -1.87665,-0.06302 -0.16739,0.755192 -0.32421,0.981725 -0.67959,0.981725 -1.36989,0 -2.86551,-6.479744 -2.53255,-10.972225 0.15601,-2.105061 -0.13301,-2.995141 -0.87953,-2.708671 -0.49701,0.190721 -0.79165,1.846922 -1.18713,6.673037 -0.34795,4.246047 -0.71153,5.607978 -1.45841,5.463013 -0.20435,-0.03966 -0.85604,-0.695798 -1.4482,-1.458078 -1.10567,-1.423312 -1.81169,-1.781078 -2.45734,-1.245232 -0.27588,0.228957 -0.31859,0.574994 -0.1986,1.608892 0.18018,1.55245 -0.0934,1.878962 -1.00678,1.201485 -0.37989,-0.281785 -0.81356,-1.015445 -1.14295,-1.933587 -0.56117,-1.564215 -1.00307,-2.146204 -1.81257,-2.38719 -0.86627,-0.257887 -1.23706,0.398323 -1.23706,2.189321 0,1.719828 -0.23651,2.070392 -1.62707,2.411705 -0.839,0.205933 -1.22445,-0.335299 -1.95624,-2.746844 -0.66961,-2.206622 -1.34434,-3.140949 -2.26826,-3.140949 -0.941,0 -1.09162,0.433789 -0.9319,2.683919 0.11981,1.687903 0.0828,2.11192 -0.20524,2.350967 -0.49051,0.407089 -1.61269,-0.561544 -2.1203,-1.830179 -0.99463,-2.485828 -1.24926,-8.448259 -0.55459,-12.986435 0.23637,-1.5441963 0.25645,-1.5784731 0.85269,-1.4556981 0.70427,0.1450197 3.24898,0.4982971 5.94124,0.8248091 1.02614,0.124448 3.6768,0.642951 5.89035,1.152229 2.21355,0.509278 4.80962,1.02147 5.76903,1.138203 0.95941,0.116734 2.15481,0.420473 2.65643,0.674976 0.50163,0.254502 1.58771,0.536688 2.41351,0.627079 5.42241,0.593524 15.16149,2.853725 17.62372,4.090031 2.01534,1.011917 3.85065,3.441492 3.85649,5.105209 0.006,1.618132 -1.31093,3.142984 -3.90978,4.528154 -2.18421,1.164174 -3.16024,0.89922 -4.6468,-1.261422 -0.78045,-1.134342 -1.51669,-1.349029 -1.72231,-0.502221 -0.0694,0.285855 -0.20381,0.9875 -0.29868,1.559211 -0.18876,1.137526 -0.71995,1.44207 -1.50897,0.865124 z"
   id="path5" /><path
   style="fill:#ffffff;stroke-width:0.864842;paint-order:markers stroke fill"
   d="m 181.83085,28.58443 c -0.23113,-0.169005 -0.69814,-0.822599 -1.0378,-1.452431 -0.84601,-1.568757 -1.52897,-1.67437 -1.89674,-0.293313 -0.53866,2.022796 -1.34542,2.16865 -2.32775,0.420836 -0.50128,-0.891917 -1.13623,-1.322398 -1.56219,-1.05914 -0.11378,0.07032 -0.27637,0.498283 -0.3613,0.951027 -0.30509,1.626258 -1.21723,1.274777 -1.97959,-0.762805 -0.88767,-2.372513 -1.20176,-4.415276 -1.2419,-8.077109 -0.0391,-3.563148 -0.18745,-4.19888 -0.91489,-3.919734 -0.47688,0.182994 -0.77925,1.906883 -1.16925,6.666177 -0.34941,4.263952 -0.71034,5.60764 -1.46711,5.461899 -0.20913,-0.04027 -0.83402,-0.670255 -1.38865,-1.399956 -1.05788,-1.391815 -1.88047,-1.823209 -2.49848,-1.310303 -0.28693,0.238135 -0.32976,0.570542 -0.20831,1.616955 0.18018,1.55245 -0.0934,1.878962 -1.00678,1.201485 -0.37989,-0.281785 -0.81356,-1.015445 -1.14295,-1.933587 -0.56117,-1.564215 -1.00307,-2.146204 -1.81257,-2.38719 -0.86627,-0.257887 -1.23706,0.398323 -1.23706,2.189321 0,1.719828 -0.23651,2.070392 -1.62707,2.411705 -0.8286,0.203381 -1.20567,-0.318532 -1.96222,-2.71598 -0.6995,-2.216623 -1.38669,-3.171813 -2.28191,-3.171813 -0.86171,0 -1.05832,0.609632 -0.90362,2.80183 0.11117,1.575229 0.0707,1.996832 -0.21413,2.233258 -0.29063,0.241199 -0.47072,0.190854 -1.04458,-0.292012 -1.60339,-1.349167 -2.26047,-5.150888 -1.9109,-11.056093 0.28789,-4.8631462 0.3403,-5.0895485 1.14168,-4.9315823 0.58115,0.1145561 2.27419,0.3498023 6.12296,0.8507783 1.00353,0.130625 3.62578,0.652959 5.82722,1.160743 2.20144,0.507784 4.65471,0.987748 5.45172,1.066588 0.797,0.07884 2.02081,0.377792 2.71957,0.664339 0.69875,0.286546 2.20599,0.642765 3.34941,0.791597 5.96427,0.776334 14.42062,2.778096 16.81524,3.980455 2.01534,1.011917 3.85065,3.441492 3.85649,5.105209 0.006,1.618132 -1.31093,3.142984 -3.90978,4.528154 -2.18421,1.164174 -3.16024,0.89922 -4.6468,-1.261422 -0.78045,-1.134342 -1.51669,-1.349029 -1.72231,-0.502221 -0.0694,0.285855 -0.20381,0.9875 -0.29868,1.559211 -0.18876,1.137526 -0.71995,1.44207 -1.50897,0.865124 z"
   id="path6" /><path
   style="fill:#ffffff;stroke-width:0.864842;paint-order:markers stroke fill"
   d="m 122.54243,67.332128 c -0.69876,-0.170878 -2.21612,-0.672499 -3.37191,-1.114713 -1.1558,-0.442214 -3.28672,-1.131887 -4.73538,-1.532606 -1.44867,-0.40072 -2.87904,-0.887686 -3.17861,-1.082148 -0.3044,-0.197599 -0.94638,-1.223084 -1.45532,-2.324679 -1.05319,-2.27962 -2.81722,-4.297285 -4.48556,-5.130492 -0.58962,-0.294475 -1.9266,-0.77052 -2.97106,-1.057879 -1.89893,-0.522447 -3.222888,-1.08445 -3.460516,-1.468939 -0.309363,-0.500561 0.952063,-1.774762 2.299606,-2.322889 1.17482,-0.477873 1.76903,-0.561856 4.03419,-0.570175 2.36519,-0.0087 2.83371,0.05988 4.27339,0.625404 2.11502,0.830807 4.73033,2.355851 7.48075,4.3622 2.54571,1.857014 3.05287,2.100841 3.78822,1.82126 0.48699,-0.185153 3.04559,-2.285183 5.43415,-4.460199 0.54753,-0.498583 1.42577,-1.099144 1.95163,-1.334581 1.07702,-0.482195 1.43515,-0.38448 2.59672,0.708524 0.38114,0.358641 2.00301,1.284625 3.60415,2.057743 2.54695,1.229801 3.1683,1.434507 4.96637,1.636184 2.15533,0.241746 2.57687,0.326178 3.61442,0.723946 1.31503,0.504143 1.47937,0.401358 -9.41301,5.887161 -2.1598,1.087753 -4.61453,2.48463 -5.45496,3.104172 -2.51666,1.855209 -3.20347,2.038536 -5.51727,1.472706 z"
   id="path7" /><path
   style="fill:#ffffff;stroke-width:0.864842;paint-order:markers stroke fill"
   d="m 105.54097,62.956007 c -3.25918,-0.506293 -7.197228,-1.982677 -7.782149,-2.917551 -0.373761,-0.597379 0.03796,-2.065173 0.790323,-2.817539 0.647275,-0.647275 0.771658,-0.681635 2.048416,-0.565862 1.61959,0.146859 3.7425,1.06564 4.82385,2.087731 0.77937,0.73666 3.03037,3.966616 3.03037,4.348273 0,0.254693 -0.57303,0.228106 -2.91081,-0.135052 z"
   id="path8" /><path
   style="fill:#ffffff;stroke-width:0.864842;paint-order:markers stroke fill"
   d="m 146.19191,46.868458 c -3.8918,-0.49299 -7.87286,-2.91933 -9.2176,-5.617861 -1.01256,-2.031955 -0.58782,-3.956448 1.10037,-4.985753 0.92867,-0.566218 1.45884,-0.581958 1.9031,-0.0565 1.74633,2.065494 2.95459,3.223498 5.43308,5.207107 4.53886,3.632579 5.43159,4.628226 4.60684,5.137947 -0.46097,0.284896 -2.64443,0.464708 -3.82579,0.31506 z"
   id="path9" /><path
   style="fill:#ffffff;stroke-width:0.864842;paint-order:markers stroke fill"
   d="m 121.73395,80.221313 c -0.41137,-0.2239 -1.33192,-0.39652 -2.2653,-0.424785 -1.24178,-0.0376 -1.68194,-0.150609 -2.09383,-0.537557 -0.32789,-0.308036 -0.82395,-0.489943 -1.33607,-0.489943 -0.448,0 -1.84459,-0.216963 -3.10353,-0.482139 -1.67167,-0.352111 -2.69445,-0.443266 -3.79244,-0.337999 -2.36243,0.226493 -2.42345,0.135633 -2.42345,-3.608407 0,-2.901689 -0.036,-3.147028 -0.626,-4.265581 -1.19401,-2.263696 -3.24979,-3.45564 -6.460169,-3.745622 -2.043038,-0.18454 -2.271043,-0.571252 -0.625015,-1.060069 2.698514,-0.801374 6.038794,-0.318393 12.669104,1.831867 2.21074,0.716959 5.32592,1.600514 6.92262,1.963455 1.5967,0.362941 3.6128,0.838539 4.48023,1.056885 l 1.57715,0.396994 1.65677,-0.824881 c 0.91123,-0.453685 3.47586,-1.708384 5.69917,-2.788221 2.22332,-1.079837 4.61411,-2.352947 5.31287,-2.829133 1.18221,-0.805645 3.76952,-2.288406 6.64123,-3.806014 1.66005,-0.877284 3.46138,-1.232112 4.64162,-0.914307 2.15742,0.580932 4.8803,3.379272 4.96458,5.102168 0.0341,0.696959 -0.0389,0.789831 -0.77082,0.981092 -2.06042,0.538397 -2.13483,0.602332 -1.97118,1.693653 0.14223,0.948421 0.11877,1.002573 -0.499,1.152154 -0.35653,0.08633 -1.08769,0.55754 -1.6248,1.047139 -0.85452,0.778926 -1.11802,0.89018 -2.10841,0.89018 -1.43102,0 -1.86547,0.413405 -1.40304,1.335057 0.17341,0.345617 0.35328,0.706354 0.3997,0.801639 0.0464,0.09529 -0.47517,0.173246 -1.15911,0.173246 -1.44081,0 -1.7979,0.261508 -1.7979,1.316667 0,0.863681 -0.41005,0.978023 -1.7586,0.490382 -1.03576,-0.374537 -1.47532,0.01724 -1.47532,1.314943 0,1.278779 -0.42575,1.442979 -1.74177,0.671744 -1.39639,-0.818338 -2.04869,-0.695784 -2.14015,0.402092 -0.0888,1.065606 -0.413,1.188495 -1.66125,0.629638 -1.21248,-0.542847 -1.7688,-0.401998 -1.96644,0.497872 -0.183,0.833189 -0.48365,0.854251 -1.49916,0.105026 -0.43051,-0.317617 -1.03025,-0.577485 -1.33277,-0.577485 -0.52845,0 -0.54707,0.05632 -0.47485,1.436413 0.0928,1.773325 -0.18092,1.901083 -2.04849,0.956176 l -1.28482,-0.650056 -0.62253,0.745693 c -0.7182,0.860286 -1.73561,0.983135 -2.89883,0.350024 z"
   id="path10" /><path
   style="fill:#ffffff;stroke-width:0.864842;paint-order:markers stroke fill"
   d="m 101.05497,74.942923 c -1.191259,-0.579796 -2.672639,-1.150271 -3.29196,-1.267723 -0.619321,-0.117452 -1.49426,-0.388282 -1.944309,-0.601844 -0.902902,-0.428455 -2.150546,-1.977441 -2.150546,-2.669964 0,-1.416905 1.637767,-2.278368 4.36552,-2.296258 2.418035,-0.01586 4.095225,0.490071 5.208335,1.571109 1.03296,1.003199 1.97041,2.885428 1.9736,3.962635 0.004,1.318469 -0.7484,2.356219 -1.70811,2.356219 -0.15764,0 -1.26128,-0.474378 -2.45253,-1.054174 z"
   id="path11" /><path
   style="fill:#ffffff;stroke-width:0.864842;paint-order:markers stroke fill"
   d="m 121.43366,95.354413 c -0.15246,-0.152456 -0.27719,-0.451571 -0.27719,-0.664699 0,-0.7682 -0.60121,-0.984569 -2.07587,-0.747082 -1.23065,0.198189 -1.49203,0.165168 -2.47958,-0.313239 -0.87587,-0.42431 -1.32797,-0.505528 -2.18854,-0.393167 -0.78944,0.103073 -1.37228,0.02395 -2.14153,-0.290713 -1.23001,-0.503148 -1.37882,-0.869691 -1.62903,-4.01274 -0.19222,-2.414575 -0.68998,-3.614688 -1.8951,-4.569166 -1.39695,-1.106401 -2.94156,-1.673411 -5.44804,-1.99991 -3.31262,-0.431509 -3.467339,-0.898261 -0.50635,-1.527557 1.99863,-0.424769 5.68625,-0.387462 7.7383,0.07829 0.95285,0.216266 3.44168,0.655001 5.53072,0.974966 4.92615,0.754507 5.35321,0.879391 6.00033,1.754672 0.49386,0.667979 0.61257,0.713537 1.53117,0.58763 1.47383,-0.202012 5.628,-1.594077 9.50538,-3.185265 1.88059,-0.771749 4.45873,-1.760982 5.72919,-2.198295 1.27047,-0.437313 3.14153,-1.145992 4.1579,-1.574843 1.01637,-0.428851 2.49569,-0.904578 3.28737,-1.057171 1.37222,-0.264489 1.49755,-0.249002 2.68447,0.331702 1.87814,0.918889 3.15243,3.09304 3.15243,5.378564 0,0.888043 -0.13248,1.161965 -1.02187,2.112787 -0.56202,0.600852 -1.09303,1.376004 -1.18001,1.72256 -0.14775,0.588674 -0.24003,0.630102 -1.40357,0.630102 h -1.24543 v 1.366716 c 0,0.8852 -0.10172,1.402504 -0.28874,1.468296 -0.41915,0.147459 -1.29216,-0.222668 -2.07105,-0.878057 -0.79763,-0.671164 -1.72337,-0.754414 -1.85427,-0.16675 -0.0495,0.222332 0.0531,0.905711 0.2281,1.518621 0.24604,0.861823 0.2562,1.189018 0.0448,1.443714 -0.38714,0.466471 -0.51756,0.427481 -1.60272,-0.479147 -1.45853,-1.218568 -2.07895,-1.038429 -2.07895,0.603628 0,0.887521 -0.56428,1.099269 -1.23936,0.46507 -0.57591,-0.541041 -1.49661,-0.654985 -1.63602,-0.20247 -0.0489,0.158809 -0.15159,0.574599 -0.22815,0.923977 -0.19258,0.878885 -1.09615,0.849221 -2.1435,-0.07037 -1.02383,-0.898929 -1.48189,-0.806506 -1.78751,0.36067 -0.46758,1.78571 -0.93549,1.935456 -2.09436,0.670259 -0.86749,-0.94707 -1.56815,-0.985151 -1.69221,-0.09197 -0.1297,0.933851 -0.40405,1.089942 -3.01144,1.713396 -2.72719,0.652097 -3.94625,0.740531 -4.36979,0.316994 z"
   id="path12" /><path
   style="fill:#ffffff;stroke-width:0.864842;paint-order:markers stroke fill"
   d="m 102.90792,89.413195 c -1.46103,-0.474003 -2.992856,-1.037821 -3.404043,-1.252928 -1.106222,-0.578705 -2.370809,-1.759694 -2.370809,-2.214082 0,-0.898004 1.769979,-1.884233 3.965392,-2.209508 2.76034,-0.408976 7.0169,1.869962 7.41871,3.971939 0.15211,0.795693 -0.18111,1.894744 -0.69193,2.282215 -0.66838,0.506981 -2.08828,0.340185 -4.91732,-0.577636 z"
   id="path13" /><path
   style="fill:#ffffff;stroke-width:0.864842;paint-order:markers stroke fill"
   d="m 90.780727,102.39672 c -0.873271,-0.21005 -0.883102,-0.49982 -0.03396,-1.00083 1.936212,-1.14239 0.256133,-1.801555 -2.622477,-1.0289 -1.575318,0.42283 -2.774804,0.44789 -2.763744,0.0577 0.0045,-0.15881 0.156738,-0.548615 0.338304,-0.866233 0.827348,-1.447292 0.192735,-1.462348 -3.233919,-0.07672 -2.144762,0.867273 -3.805641,1.098573 -4.304879,0.599513 -0.479584,-0.47941 0.624266,-1.410594 2.976663,-2.511044 1.175183,-0.54975 2.136696,-1.104917 2.136696,-1.233705 0,-0.359845 -1.050451,-0.542083 -2.162986,-0.375248 -0.551152,0.08265 -2.498833,0.509296 -4.328182,0.948104 -3.418114,0.819905 -4.919376,0.982204 -5.180293,0.560032 -0.229005,-0.370538 0.288782,-0.855949 1.950435,-1.828483 1.782727,-1.043401 2.675892,-1.915633 2.481182,-2.42304 -0.187234,-0.487922 -0.580832,-0.453554 -2.505086,0.21874 -1.683472,0.588169 -8.613897,1.963953 -9.8933,1.963953 -0.630186,0 -0.679531,-0.04855 -0.462145,-0.45474 0.375308,-0.701271 1.971864,-1.513343 4.508266,-2.293087 2.338719,-0.718972 3.811404,-1.441002 3.811404,-1.868662 0,-0.412436 -0.997657,-0.256434 -4.49821,0.703384 -5.12104,1.404138 -8.146307,1.58505 -11.405335,0.682038 -2.113114,-0.585498 -1.803954,-1.029913 0.851389,-1.22386 3.080151,-0.224977 8.815312,-2.220247 8.815312,-3.06686 0,-0.462073 -1.041273,-0.428385 -4.693058,0.151826 -3.555078,0.564848 -7.219531,0.486372 -10.668057,-0.228458 -3.104202,-0.643457 -5.890353,-1.881556 -5.890353,-2.617536 0,-0.125587 1.854432,-0.156284 4.562136,-0.07552 5.054642,0.150772 7.730968,-0.130798 7.863371,-0.827292 0.108662,-0.571597 -1.098456,-0.898332 -4.133878,-1.118927 -2.268369,-0.164851 -3.263005,-0.379786 -6.467838,-1.397667 -4.101177,-1.30257 -6.428956,-2.351524 -7.421939,-3.344505 -1.239603,-1.239603 -0.396964,-1.331823 3.057212,-0.334588 1.333992,0.385129 3.776755,0.85609 5.428364,1.046579 1.651609,0.190489 3.626609,0.445666 4.38889,0.567056 1.743965,0.277724 3.514305,0.287047 3.679731,0.01938 0.328534,-0.53158 -1.043764,-0.976738 -5.013859,-1.626442 -2.785288,-0.455809 -5.962807,-1.560239 -8.483126,-2.94853 -2.03211,-1.119366 -6.83011,-5.939582 -8.645916,-8.685949 -0.738748,-1.11734 -1.285492,-2.089213 -1.214987,-2.159717 0.293997,-0.293998 1.91238,0.514581 4.144546,2.070704 3.509855,2.446845 4.06152,2.789361 6.316517,3.921757 2.327616,1.168868 5.856932,2.472176 6.694563,2.472176 1.240082,0 0.610001,-0.590204 -3.714313,-3.479242 -9.131437,-6.100583 -13.332468,-13.355633 -13.3674,-23.085034 -0.0082,-2.278142 0.07122,-2.867735 0.557587,-4.140234 0.311918,-0.816091 0.693224,-1.52512 0.847347,-1.575621 0.314416,-0.103023 0.374643,0.140344 0.743648,3.004977 0.304712,2.365515 1.227067,5.125006 2.343265,7.010552 0.959216,1.620362 5.520818,6.399745 7.598707,7.961486 2.622968,1.971422 5.599258,3.354403 8.698933,4.042093 2.471224,0.548263 9.162149,0.682697 12.037193,0.241851 3.503896,-0.537274 5.340665,-1.248556 11.840441,-4.585175 7.023612,-3.605526 7.777476,-4.068464 9.926413,-6.095662 4.410136,-4.1603 7.608785,-9.867056 9.262057,-16.524576 0.39503,-1.590742 0.801531,-3.02703 0.903335,-3.191751 0.307017,-0.496764 1.713199,-0.08019 4.368176,1.29406 3.24862,1.681517 7.15857,3.075351 12.56428,4.478956 2.44156,0.633958 4.71136,1.262761 5.04399,1.397341 0.45954,0.185925 0.75915,0.643195 1.24753,1.903986 0.89108,2.300421 1.83662,4.164202 3.02553,5.963753 1.12717,1.706094 1.20261,2.101431 0.5809,3.044353 -0.51217,0.77679 -2.64212,2.419436 -3.37603,2.603636 -0.66445,0.166765 -3.50941,-1.245232 -6.90855,-3.428819 -4.05861,-2.607228 -6.73538,-3.424252 -9.6702,-2.951613 -3.16537,0.509769 -5.639551,2.322721 -8.310024,6.089171 -3.561656,5.023378 -6.678588,7.765217 -11.843078,10.417871 -5.346292,2.746034 -10.874591,4.095897 -18.166709,4.435824 -3.363169,0.156776 -8.123006,-0.183899 -10.290815,-0.736544 -0.737401,-0.187987 -3.265711,-1.275213 -5.618467,-2.416056 -5.05269,-2.450036 -6.174298,-2.676636 -4.725361,-0.954674 1.099644,1.306855 3.764503,3.050734 7.447053,4.873341 l 3.685565,1.824099 0.156082,0.9761 0.156085,0.976101 2.013076,-0.178339 c 2.774233,-0.245771 3.217042,-0.231888 3.633707,0.113915 0.32266,0.267782 0.28429,0.381836 -0.347902,1.034092 -0.80818,0.833829 -0.752524,1.337978 0.187583,1.699198 1.375291,0.528431 2.041802,0.516854 3.870934,-0.06725 1.855496,-0.592523 3.430881,-0.758229 3.661467,-0.385134 0.06969,0.112755 -0.443916,0.692504 -1.141338,1.288331 -0.859788,0.734538 -1.268041,1.255537 -1.268041,1.61823 0,1.17869 1.272751,0.93785 4.391702,-0.831027 3.453296,-1.958498 4.617008,-1.762144 2.189169,0.36938 -1.775413,1.558726 -1.955801,2.200957 -0.618196,2.200957 0.588153,0 1.557823,-0.345459 2.918471,-1.039744 2.256275,-1.151291 4.116338,-1.78261 4.649419,-1.578049 0.616611,0.236617 0.221542,0.632761 -1.62658,1.631004 -2.135916,1.153689 -2.664216,1.591715 -2.664216,2.208959 0,0.412937 0.107059,0.442957 1.097223,0.307654 0.603472,-0.08246 2.732317,-0.691167 4.730763,-1.352681 2.881108,-0.953685 3.692552,-1.143743 3.918503,-0.917791 0.392427,0.392427 -0.531797,1.292322 -2.281703,2.221638 -0.915419,0.486148 -1.366127,0.872723 -1.414655,1.213352 -0.128982,0.905407 0.712317,0.871047 3.283144,-0.134097 3.164,-1.237064 4.69143,-1.570213 5.140453,-1.12119 0.459845,0.459842 0.1855,0.663792 -3.346556,2.487847 -1.599067,0.825804 -2.946429,1.631396 -2.994134,1.790205 -0.159748,0.531781 2.660608,0.342789 4.456147,-0.298604 0.889328,-0.317682 2.598535,-0.793262 3.79824,-1.056845 2.674456,-0.587596 2.604649,-0.648618 2.99736,2.620244 0.34132,2.841076 0.784186,3.937135 2.052375,5.079452 2.085436,1.878452 7.180674,3.712733 17.167844,6.180407 5.03806,1.244828 6.22732,1.704825 5.71685,2.211246 -0.49316,0.489259 -2.83095,1.010551 -5.74582,1.281231 -1.46104,0.13568 -4.68341,0.49445 -7.16082,0.79727 -6.34527,0.77559 -8.592803,0.88295 -10.364168,0.49509 -1.332255,-0.29172 -1.624707,-0.28169 -3.1028,0.10637 -1.65029,0.43327 -1.983593,0.46446 -2.818125,0.26373 z"
   id="path14" /><path
   style="fill:#ffffff;stroke-width:0.864842;paint-order:markers stroke fill"
   d="m 29.849924,98.974733 c -0.479769,-0.176125 -1.333502,-0.651432 -1.897184,-1.056239 -2.76117,-1.982921 -3.344819,-5.24284 -1.572824,-8.784851 0.907987,-1.814958 1.459525,-2.248032 2.294119,-1.801371 0.512459,0.27426 0.668688,0.638026 1.100467,2.562351 0.296126,1.319757 2.722388,2.66025 6.356221,3.511771 1.28854,0.301945 2.269288,0.659724 2.407029,0.878089 0.593874,0.941485 -1.373478,3.299806 -3.657625,4.3845 -1.571654,0.746345 -3.509204,0.864115 -5.030203,0.30575 z"
   id="path15" /><path
   style="fill:#ffffff;stroke-width:0.864842;paint-order:markers stroke fill"
   d="m 24.254393,81.677472 c -2.586353,-0.640864 -4.968087,-2.499111 -6.057749,-4.726297 -0.528866,-1.080965 -0.632166,-1.587699 -0.618021,-3.031693 0.03389,-3.459314 1.781986,-6.03757 5.404221,-7.970633 3.132456,-1.671687 2.026517,-2.251676 -2.369056,-1.242412 -4.865279,1.117114 -8.439663,0.297223 -11.0990713,-2.5459 -2.6485611,-2.831525 -3.2437075,-6.38083 -1.6276537,-9.70692 0.8372578,-1.723207 3.363493,-4.242545 5.010035,-4.996357 1.960545,-0.897567 4.348271,-1.323178 6.506416,-1.159765 3.651521,0.276491 3.459535,0.288149 3.52655,-0.214149 0.04483,-0.336052 -0.450922,-0.871283 -1.818641,-1.963451 -3.303378,-2.637854 -4.502116,-4.882272 -4.316856,-8.082526 0.08015,-1.3846 0.239352,-2.020424 0.704693,-2.814468 0.839326,-1.432201 2.490526,-2.883438 4.172708,-3.667385 1.819189,-0.847797 5.23969,-1.428728 6.605464,-1.121859 1.462782,0.328665 3.737579,1.426479 4.6917,2.264209 0.930787,0.817243 0.929526,0.85042 -0.09751,2.565301 -1.723593,2.877957 -3.395252,8.288144 -4.496531,14.552636 -1.489604,8.473438 -0.583301,13.750252 4.114356,23.955239 2.044643,4.441693 2.188241,5.126258 1.399583,6.672155 -0.628952,1.232846 -0.726664,1.29992 -3.282301,2.253099 -3.592116,1.339755 -4.400994,1.464693 -6.352341,0.981176 z"
   id="path16" /><path
   style="fill:#ffffff;stroke-width:0.864842;paint-order:markers stroke fill"
   d="m 29.892872,23.330981 c -2.503138,-1.487531 -3.541749,-2.63208 -4.136855,-4.55881 -0.927507,-3.00292 -0.548896,-4.887166 1.348287,-6.710055 2.154382,-2.0700154 3.517968,-2.5546547 6.042598,-2.1476316 2.646039,0.4265966 5.38834,2.1223636 5.013179,3.1000176 -0.06614,0.172363 -1.024154,0.767472 -2.128917,1.322463 -2.157942,1.08407 -3.201542,2.089672 -3.579936,3.44959 -0.382156,1.373434 -0.27488,3.770702 0.218,4.871583 0.490842,1.096332 0.324121,1.827249 -0.416793,1.827249 -0.229345,0 -1.291148,-0.519483 -2.359563,-1.154406 z"
   id="path17" /></svg>
